<svg xmlns="http://www.w3.org/2000/svg" width="300" height="300" viewBox="0 0 300 300">
  <defs>
    <style>
      .cls-1 {
        fill: #fff;
      }
    </style>
  </defs>
  <path id="Union_1" data-name="Union 1" class="cls-1" d="M119.77,296.952a149.164,149.164,0,0,1-53.636-22.57,150.437,150.437,0,0,1-54.347-66,149.274,149.274,0,0,1-8.74-28.156,151.464,151.464,0,0,1,0-60.46,149.164,149.164,0,0,1,22.57-53.636,150.444,150.444,0,0,1,66-54.347,149.253,149.253,0,0,1,28.157-8.74,151.464,151.464,0,0,1,60.46,0,149.164,149.164,0,0,1,53.636,22.57,150.448,150.448,0,0,1,54.346,66,149.273,149.273,0,0,1,8.74,28.157,151.465,151.465,0,0,1,0,60.46,149.164,149.164,0,0,1-22.57,53.636,150.441,150.441,0,0,1-66,54.346,149.273,149.273,0,0,1-28.156,8.74,151.465,151.465,0,0,1-60.46,0ZM50,150A100,100,0,1,0,150,50,100.113,100.113,0,0,0,50,150Zm5,0a95,95,0,1,1,95,95A95,95,0,0,1,55,150Z"/>
</svg>
